<?xml version="1.0" standalone="no"?>
<!DOCTYPE svg PUBLIC "-//W3C//DTD SVG 20010904//EN"
 "http://www.w3.org/TR/2001/REC-SVG-20010904/DTD/svg10.dtd">
<svg version="1.0" xmlns="http://www.w3.org/2000/svg"
 width="587.000000pt" height="340.000000pt" viewBox="0 0 587.000000 340.000000"
 preserveAspectRatio="xMidYMid meet">

<g transform="translate(0.000000,340.000000) scale(0.100000,-0.100000)"
fill="#000000" stroke="none">
<path d="M0 1700 l0 -1700 2935 0 2935 0 0 1700 0 1700 -2935 0 -2935 0 0
-1700z m4941 832 c21 -24 29 -42 29 -71 0 -41 -31 -91 -56 -91 -12 0 -14 -97
-14 -675 l0 -675 -304 0 -304 0 -28 -57 c-21 -43 -42 -67 -78 -91 -43 -28 -56
-32 -118 -32 -106 0 -188 54 -218 144 l-12 36 -279 0 -279 0 0 669 0 669 -30
7 c-61 13 -87 83 -55 145 32 62 -10 60 893 57 l824 -2 29 -33z m-3561 -577 l0
-55 -145 0 -145 0 0 -70 0 -69 123 -3 122 -3 3 -52 3 -53 -125 0 -126 0 0 -80
0 -80 145 0 145 0 0 -55 0 -55 -212 2 -213 3 -3 300 c-1 165 0 305 3 312 3 10
55 13 215 13 l210 0 0 -55z m1610 -50 l0 -55 40 0 40 0 0 -50 0 -50 -40 0 -40
0 0 -123 c0 -133 5 -147 52 -147 27 0 28 -2 28 -49 l0 -49 -39 -7 c-57 -10
-105 3 -138 37 -28 29 -28 29 -31 184 l-3 154 -35 0 -34 0 0 50 0 50 35 0 35
0 0 55 0 55 65 0 65 0 0 -55z m-847 -56 c49 -13 101 -60 120 -107 9 -21 17
-67 18 -103 l3 -64 -146 -3 c-140 -2 -146 -3 -141 -22 3 -11 19 -32 36 -46 27
-22 38 -25 79 -22 33 4 57 13 74 29 l26 24 28 -35 c16 -19 30 -38 30 -42 1
-31 -115 -88 -180 -88 -91 0 -184 63 -216 146 -25 65 -16 178 19 237 50 85
150 124 250 96z m545 -15 c50 -33 62 -82 62 -276 l0 -178 -65 0 -65 0 0 165
c0 152 -2 167 -20 185 -25 25 -71 26 -99 3 -19 -17 -21 -29 -23 -183 l-3 -165
-67 -3 -68 -3 0 236 0 235 65 0 c60 0 65 -2 65 -21 0 -21 1 -21 27 -4 14 10
38 21 52 26 35 11 109 2 139 -17z m-1117 -127 c20 -76 39 -140 41 -142 2 -2
21 61 43 141 l39 144 69 0 c51 0 68 -3 64 -12 -2 -7 -37 -113 -78 -235 l-74
-223 -61 0 -61 0 -77 223 c-42 122 -76 228 -76 235 0 10 17 12 66 10 l67 -3
38 -138z"/>
<path d="M3250 2500 c-22 -22 -26 -60 -8 -78 16 -16 1629 -17 1659 -2 25 14
25 61 1 83 -17 16 -89 17 -825 17 -794 0 -807 0 -827 -20z"/>
<path d="M4000 1911 c-71 -22 -97 -44 -120 -105 l-10 -26 59 0 c51 0 59 3 69
24 27 61 124 34 130 -36 l3 -35 -79 -5 c-86 -5 -130 -24 -164 -69 -25 -33 -26
-110 -3 -145 19 -29 87 -63 127 -64 33 0 108 28 108 41 0 5 5 9 10 9 6 0 10
-9 10 -20 0 -18 7 -20 58 -20 l57 0 -3 142 c-3 183 -14 239 -53 272 -48 41
-134 56 -199 37z m130 -290 c0 -59 -22 -81 -82 -81 -58 0 -84 41 -57 91 13 26
43 38 97 38 l42 1 0 -49z"/>
<path d="M3420 1858 c145 -416 141 -400 129 -435 -12 -37 -34 -53 -73 -53 -24
0 -26 -3 -26 -44 0 -39 3 -45 25 -50 52 -13 120 20 149 71 7 13 196 551 196
559 0 2 -27 4 -59 4 l-60 0 -26 -87 c-51 -169 -59 -193 -64 -193 -3 0 -24 63
-46 140 l-39 140 -63 0 -62 0 19 -52z"/>
<path d="M4310 1903 c0 -5 34 -105 76 -223 78 -223 83 -253 47 -292 -9 -10
-30 -18 -50 -18 -32 0 -33 -1 -33 -44 0 -39 3 -45 25 -50 38 -10 97 10 128 42
20 20 53 103 125 310 l99 282 -61 0 -62 0 -38 -132 c-22 -73 -42 -137 -47
-142 -4 -4 -19 32 -34 80 -14 49 -34 113 -43 142 l-16 52 -58 0 c-32 0 -58 -3
-58 -7z"/>
<path d="M3880 1012 c0 -4 13 -28 29 -53 46 -73 136 -105 214 -75 49 18 100
67 116 109 l11 27 -185 0 c-102 0 -185 -4 -185 -8z"/>
<path d="M2033 1735 c-11 -8 -26 -28 -31 -45 l-11 -30 80 0 c78 0 79 0 79 25
0 54 -69 84 -117 50z"/>
</g>
</svg>
