<?xml version="1.0" encoding="UTF-8" standalone="no"?>
<svg
   width="263.31104mm"
   height="119.92635mm"
   viewBox="0 0 263.31104 119.92635"
   version="1.1"
   id="svg8"
   sodipodi:docname="logo.svg"
   inkscape:version="1.3.2 (091e20ef0f, 2023-11-25, custom)"
   xmlns:inkscape="http://www.inkscape.org/namespaces/inkscape"
   xmlns:sodipodi="http://sodipodi.sourceforge.net/DTD/sodipodi-0.dtd"
   xmlns="http://www.w3.org/2000/svg"
   xmlns:svg="http://www.w3.org/2000/svg"
   xmlns:rdf="http://www.w3.org/1999/02/22-rdf-syntax-ns#"
   xmlns:cc="http://creativecommons.org/ns#"
   xmlns:dc="http://purl.org/dc/elements/1.1/">
  <sodipodi:namedview
     id="namedview1"
     pagecolor="#ffffff"
     bordercolor="#666666"
     borderopacity="1.0"
     inkscape:showpageshadow="2"
     inkscape:pageopacity="0.0"
     inkscape:pagecheckerboard="0"
     inkscape:deskcolor="#d1d1d1"
     inkscape:document-units="mm"
     showgrid="false"
     inkscape:zoom="1.9590585"
     inkscape:cx="497.94327"
     inkscape:cy="226.63948"
     inkscape:window-width="1920"
     inkscape:window-height="1130"
     inkscape:window-x="0"
     inkscape:window-y="0"
     inkscape:window-maximized="1"
     inkscape:current-layer="text1" />
  <style
     id="style834" />
  <metadata
     id="metadata9">
    <rdf:RDF>
      <cc:Work
         rdf:about="">
        <dc:format>image/svg+xml</dc:format>
        <dc:type
           rdf:resource="http://purl.org/dc/dcmitype/StillImage" />
      </cc:Work>
    </rdf:RDF>
  </metadata>
  <defs
     id="defs4571" />
  <path
     style="color:#000000;display:inline;overflow:visible;visibility:visible;opacity:1;fill:#2185d0;fill-opacity:1;fill-rule:nonzero;stroke:none;stroke-width:1.7333498;stroke-linecap:round;stroke-linejoin:round;stroke-miterlimit:4;stroke-dasharray:none;stroke-dashoffset:0;stroke-opacity:1;marker:none;enable-background:accumulate"
     d="M -50.712433,79.908707 H 212.5986 V 199.83506 H -50.712433 Z"
     id="rect4599"
     inkscape:label="background"
     transform="translate(50.712433,-79.908707)" />
  <path
     style="color:#000000;font-style:normal;font-variant:normal;font-weight:normal;font-stretch:normal;font-size:medium;line-height:normal;font-family:sans-serif;font-variant-ligatures:normal;font-variant-position:normal;font-variant-caps:normal;font-variant-numeric:normal;font-variant-alternates:normal;font-feature-settings:normal;text-indent:0;text-align:start;text-decoration:none;text-decoration-line:none;text-decoration-style:solid;text-decoration-color:#000000;letter-spacing:normal;word-spacing:normal;text-transform:none;writing-mode:lr-tb;direction:ltr;text-orientation:mixed;dominant-baseline:auto;baseline-shift:baseline;text-anchor:start;white-space:normal;shape-padding:0;clip-rule:nonzero;display:inline;overflow:visible;visibility:visible;opacity:1;isolation:auto;mix-blend-mode:normal;color-interpolation:sRGB;color-interpolation-filters:linearRGB;solid-color:#000000;solid-opacity:1;vector-effect:none;fill:#ffffff;fill-opacity:1;fill-rule:nonzero;stroke:none;stroke-width:1.44562;stroke-linecap:round;stroke-linejoin:round;stroke-miterlimit:4;stroke-dasharray:none;stroke-dashoffset:0;stroke-opacity:1;marker:none;color-rendering:auto;image-rendering:auto;shape-rendering:auto;text-rendering:auto;enable-background:accumulate"
     d="m 89.576369,99.214634 c -2.203458,0 -4.000788,1.796296 -4.000791,3.999756 v 1.23248 c 0,2.20345 1.79741,3.99924 4.000868,3.99924 h 0.900113 l 1.3e-5,62.52435 c 3.9e-5,0.39918 0.323773,0.72292 0.722953,0.72296 h 31.491095 c 0.41323,4.19364 3.9595,7.48481 8.25945,7.48481 4.29993,0 7.84707,-3.29117 8.26047,-7.48481 h 30.94437 c 0.39918,-4e-5 0.72291,-0.32378 0.72295,-0.72296 l 1e-5,-62.52435 h 0.91784 c 2.20346,0 4.00071,-1.79579 4.00071,-3.99924 v -1.23248 c 0,-2.20346 -1.79733,-3.999756 -4.00079,-3.999756 z m 0,1.445906 c 70.966481,0.43129 54.812841,0 82.219261,0 1.4276,0 2.5554,1.12626 2.5554,2.55385 v 1.23248 c 0,1.42758 -1.1278,2.55386 -2.5554,2.55386 h -1.64072 -78.955385 -1.623156 c -1.427591,0 -2.555398,-1.12628 -2.555398,-2.55386 v -1.23248 c 0,-1.42759 1.127834,-2.56252 2.555398,-2.55385 z m 34.770481,71.03288 h 13.20746 c -0.40184,3.29625 -3.19653,5.83633 -6.60424,5.83633 -3.40773,0 -6.20157,-2.54008 -6.60322,-5.83633 z"
     id="rect4550"
     sodipodi:nodetypes="ssssccccsccccssssssssssccsssscscc"
     inkscape:label="screen"
     transform="translate(50.712433,-79.908707)" />
  <g
     id="text1"
     style="font-size:4.23333px;line-height:125%;font-family:Sans;letter-spacing:0px;word-spacing:0px;stroke-width:0.264583px"
     inkscape:label="eventyay"
     aria-label="event yay">
    <path
       style="font-weight:600;font-size:35.2778px;font-family:'Francker Pro';-inkscape-font-specification:'Francker Pro, Semi-Bold';fill:#ffffff"
       d="m 49.663572,63.091089 v -1.234723 c 0,-8.18445 -1.270001,-9.383895 -9.736673,-9.383895 -8.466673,0 -9.771951,1.199445 -9.771951,9.383895 0,7.86695 0.881945,9.101673 9.45445,9.101673 5.820838,0 9.383896,-0.776111 9.383896,-0.776111 v -2.751669 c 0,0 -3.563058,0.423334 -8.854728,0.352778 -3.810003,-0.03528 -3.880559,-0.105833 -3.880559,-4.691948 z m -6.10306,-2.857501 h -7.302505 c 0,-4.65667 0.317501,-4.65667 3.668892,-4.65667 3.386669,0 3.633613,0 3.633613,4.65667 z M 72.664676,52.895805 H 66.632172 L 62.222446,67.112759 57.812721,52.895805 h -6.10306 l 5.750282,17.603623 h 9.454451 z m 21.590037,10.195284 v -1.234723 c 0,-8.18445 -1.270001,-9.383895 -9.736674,-9.383895 -8.466672,0 -9.771951,1.199445 -9.771951,9.383895 0,7.86695 0.881945,9.101673 9.454451,9.101673 5.820837,0 9.383895,-0.776111 9.383895,-0.776111 v -2.751669 c 0,0 -3.563058,0.423334 -8.854728,0.352778 -3.810002,-0.03528 -3.880558,-0.105833 -3.880558,-4.691948 z m -6.10306,-2.857501 h -7.302505 c 0,-4.65667 0.3175,-4.65667 3.668891,-4.65667 3.386669,0 3.633614,0 3.633614,4.65667 z m 28.539717,10.26584 V 58.75192 c 0,-5.856115 -3.03389,-6.279449 -9.34862,-6.279449 -5.78556,0 -9.348613,0.740834 -9.348613,0.740834 v 17.286123 h 5.891393 V 56.000251 c 0,0 1.30528,-0.176389 3.45722,-0.176389 2.46945,0 3.45723,0 3.45723,2.928058 v 11.747508 z m 19.68499,-0.3175 v -2.89278 c 0,0 -1.65805,0.282222 -4.26861,0.282222 -3.175,0 -3.28084,-0.352778 -3.28084,-2.928057 v -8.360839 h 6.49112 v -3.386669 h -6.49112 v -5.997226 h -5.85611 v 5.997226 h -3.52778 v 3.386669 h 3.52778 v 8.360839 c 0,4.727225 1.5875,6.314726 6.6675,6.314726 4.16278,0 6.73806,-0.776111 6.73806,-0.776111 z"
       id="path1" />
    <path
       style="font-weight:600;font-size:35.2778px;font-family:'Francker Pro';-inkscape-font-specification:'Francker Pro, Semi-Bold';fill:#2185d0"
       d="m 168.585,52.895805 h -5.99723 l -4.40972,14.216954 -4.37445,-14.216954 h -6.13834 l 5.71501,17.603623 h 3.91583 l -0.59972,1.869723 c -0.98778,3.104447 -1.34056,3.21028 -3.42195,3.21028 -2.78694,0 -4.51555,-0.282222 -4.51555,-0.282222 v 2.857502 c 0,0 2.50472,0.811389 6.63222,0.811389 3.24556,0 4.93889,-0.740834 6.70278,-6.032504 z m 21.20199,17.286123 V 58.75192 c 0,-5.856115 -3.175,-6.279449 -9.03112,-6.279449 -5.57389,0 -9.03111,0.740834 -9.03111,0.740834 v 2.751669 c 0,0 3.4925,-0.423334 8.50195,-0.352778 2.89278,0.03528 3.66889,0.176389 3.66889,3.139724 v 1.058334 h -6.06778 c -4.33917,0 -7.1614,0 -7.1614,5.397504 0,5.750281 4.48028,5.750281 9.59556,5.750281 5.85612,0 9.52501,-0.776111 9.52501,-0.776111 z m -5.89139,-2.540002 c 0,0 -1.34056,0.176389 -3.59834,0.176389 -2.54,0 -3.56306,0 -3.56306,-2.610557 0,-2.504724 0.70556,-2.504724 2.96334,-2.504724 h 4.19806 z m 29.38639,-14.746121 h -5.99723 l -4.40972,14.216954 -4.37445,-14.216954 h -6.13834 l 5.71501,17.603623 h 3.91583 l -0.59972,1.869723 c -0.98778,3.104447 -1.34055,3.21028 -3.42194,3.21028 -2.78695,0 -4.51556,-0.282222 -4.51556,-0.282222 v 2.857502 c 0,0 2.50472,0.811389 6.63222,0.811389 3.24556,0 4.9389,-0.740834 6.70279,-6.032504 z"
       id="path2" />
  </g>
</svg>
