<?xml version="1.0" standalone="no"?>
<!DOCTYPE svg PUBLIC "-//W3C//DTD SVG 20010904//EN"
 "http://www.w3.org/TR/2001/REC-SVG-20010904/DTD/svg10.dtd">
<svg version="1.0" xmlns="http://www.w3.org/2000/svg"
 width="378.000000pt" height="378.000000pt" viewBox="0 0 378.000000 378.000000"
 preserveAspectRatio="xMidYMid meet">

<g transform="translate(0.000000,378.000000) scale(0.100000,-0.100000)"
fill="#000000" stroke="none">
<path d="M833 3200 c-43 -26 -63 -68 -63 -130 0 -63 28 -96 89 -106 l41 -7 0
-918 0 -919 379 0 c295 0 380 3 384 13 2 6 7 -6 11 -27 13 -66 46 -124 97
-170 58 -52 121 -76 199 -76 78 0 141 24 199 76 58 52 91 114 91 172 0 23 5
42 10 42 6 0 10 -8 10 -17 0 -17 25 -18 415 -15 l415 2 0 920 0 919 34 16 c45
22 70 74 62 128 -9 54 -21 75 -59 97 -31 19 -61 20 -1157 20 -1098 0 -1126 -1
-1157 -20z m2301 -49 c20 -19 26 -34 26 -66 0 -82 106 -75 -1180 -73 l-1144 3
-14 25 c-11 20 -12 33 -3 67 21 78 -67 73 1178 70 l1111 -2 26 -24z m-819
-706 l0 -80 -217 -3 -218 -2 0 -105 0 -105 185 0 185 0 0 -80 0 -80 -185 0
-185 0 0 -122 0 -123 217 0 218 0 3 -82 3 -83 -321 0 -320 0 0 475 0 475 318
-2 317 -3 0 -80z m-71 -1352 c-20 -82 -96 -167 -177 -198 -60 -23 -165 -17
-223 13 -66 34 -131 115 -148 185 l-6 27 280 0 280 0 -6 -27z"/>
</g>
</svg>
