<?xml version="1.0" encoding="UTF-8"?>
<svg version="1.1" xmlns="http://www.w3.org/2000/svg" width="363" height="285">
<path d="M0 0 C119.79 0 239.58 0 363 0 C363 94.05 363 188.1 363 285 C243.21 285 123.42 285 0 285 C0 190.95 0 96.9 0 0 Z " fill="#D8D8D8" transform="translate(0,0)"/>
<path d="M0 0 C1.37341332 -0.00807831 1.37341332 -0.00807831 2.77457237 -0.01631981 C5.83764524 -0.03060882 8.90028654 -0.02349328 11.96337891 -0.01637268 C14.16140083 -0.0220757 16.3594198 -0.02903969 18.55743408 -0.03717041 C24.52427616 -0.05512314 30.49097135 -0.05392957 36.45783234 -0.04822803 C41.43817646 -0.04513965 46.41849223 -0.05122463 51.39883232 -0.05726677 C63.81792946 -0.07212027 76.23696123 -0.06849257 88.65605521 -0.05640347 C99.4378525 -0.0464687 110.21947824 -0.05941674 121.00124907 -0.08333766 C132.07786333 -0.10772722 143.15440844 -0.11693726 154.23105049 -0.11068493 C160.44744283 -0.10731101 166.66369337 -0.10975959 172.88006592 -0.12693596 C178.7242018 -0.14237899 184.56800947 -0.13847867 190.41213226 -0.11963081 C192.55754279 -0.11593783 194.70297749 -0.11907395 196.84836578 -0.1295166 C199.77591863 -0.14267918 202.70237731 -0.13122069 205.62988281 -0.11352539 C206.47988546 -0.1231304 207.32988811 -0.1327354 208.20564842 -0.14263147 C214.79356195 -0.0606359 218.2687663 2.10952338 223.18994141 6.51268005 C225.59323522 10.76466141 225.45999615 14.61270165 224.81494141 19.38768005 C223.41453916 22.85183298 222.64700446 24.01021121 219.24161243 25.55508137 C216.46986523 27.22345255 216.46986523 27.22345255 216.18408489 30.6460371 C216.15567558 32.02098712 216.15506518 33.39667044 216.17570496 34.77175903 C216.16734928 35.52977949 216.1589936 36.28779996 216.15038472 37.06879073 C216.12838389 39.6165499 216.14208245 42.16287737 216.15551758 44.7106781 C216.14706838 46.5337687 216.13642612 48.35685028 216.12374878 50.17991638 C216.09552432 55.13631735 216.09808782 60.09228672 216.10604262 65.04874396 C216.10916079 70.22581904 216.08415361 75.40275499 216.06208801 80.57977295 C216.02458499 90.38637908 216.01249632 100.19284651 216.00946361 109.99951726 C216.00390415 123.24898396 215.95923793 136.49831448 215.9167223 149.74770451 C215.85075527 170.62773005 215.83716946 191.5074561 215.81494141 212.38768005 C187.76494141 212.38768005 159.71494141 212.38768005 130.81494141 212.38768005 C130.15494141 215.35768005 129.49494141 218.32768005 128.81494141 221.38768005 C125.72185416 227.48519917 120.50622548 231.77014321 114.81494141 235.38768005 C114.25548828 235.76537537 113.69603516 236.14307068 113.11962891 236.5322113 C109.48652344 237.88077079 105.90768914 237.71587755 102.06494141 237.70018005 C100.90478516 237.72434998 100.90478516 237.72434998 99.72119141 237.74900818 C90.64434621 237.75662298 84.46879396 234.88862595 77.86962891 228.7118988 C73.62428325 223.90965419 70.81494141 218.83443843 70.81494141 212.38768005 C45.40494141 212.38768005 19.99494141 212.38768005 -6.18505859 212.38768005 C-6.18505859 151.33768005 -6.18505859 90.28768005 -6.18505859 27.38768005 C-8.82505859 27.38768005 -11.46505859 27.38768005 -14.18505859 27.38768005 C-17.18505859 25.76268005 -17.18505859 25.76268005 -19.18505859 22.38768005 C-19.9692317 16.57230784 -20.64152792 10.80027865 -17.52490234 5.63768005 C-12.13892954 0.45851422 -7.10200509 -0.05021558 0 0 Z " fill="#2285D0" transform="translate(87.18505859375,28.612319946289063)"/>
<path d="M0 0 C20.79 0 41.58 0 63 0 C63 4.95 63 9.9 63 15 C48.48 15 33.96 15 19 15 C19 22.59 19 30.18 19 38 C31.54 38 44.08 38 57 38 C57 42.95 57 47.9 57 53 C44.79 53 32.58 53 20 53 C20 61.25 20 69.5 20 78 C34.19 78 48.38 78 63 78 C63 83.28 63 88.56 63 94 C42.21 94 21.42 94 0 94 C0 62.98 0 31.96 0 0 Z " fill="#F9FBFD" transform="translate(159,100)"/>
<path d="M0 0 C1.37319004 -0.01169993 1.37319004 -0.01169993 2.77412128 -0.02363622 C5.84290576 -0.0435863 8.91045429 -0.02777958 11.97924805 -0.01205444 C14.17874883 -0.0188292 16.37824393 -0.02773153 18.57772827 -0.03860474 C24.55292512 -0.06142121 30.52769086 -0.05255175 36.50289536 -0.03670931 C42.75194218 -0.02406263 49.00095175 -0.035787 55.25 -0.04364014 C66.41725923 -0.05332337 77.58436001 -0.0377716 88.75158131 -0.01234345 C98.87541906 0.00999525 108.99897016 0.00611506 119.12280273 -0.01693726 C130.88123594 -0.0436991 142.63952951 -0.05365272 154.39799404 -0.03887594 C160.62165142 -0.03107517 166.84511136 -0.03005723 173.0687561 -0.04655838 C178.9195283 -0.06098694 184.76975841 -0.05101025 190.62047195 -0.0220871 C192.76951827 -0.01546775 194.9186101 -0.01738836 197.0676384 -0.02840042 C199.99802225 -0.04203349 202.9266614 -0.02496667 205.85693359 0 C207.13733001 -0.01673041 207.13733001 -0.01673041 208.44359303 -0.03379881 C212.73317126 0.03725564 214.44292061 0.26494792 217.96418762 2.9480381 C220.51115391 6.43195889 220.55431343 8.41045341 219.9284668 12.63491821 C218.64478797 14.32278425 218.64478797 14.32278425 216.9284668 15.63491821 C213.83045654 15.92362567 210.93466236 16.02623721 207.83601379 15.99568176 C206.42334332 15.99952667 206.42334332 15.99952667 204.98213404 16.00344926 C201.81278735 16.00840762 198.6439125 15.99186027 195.47460938 15.97549438 C193.20818595 15.97464856 190.94176169 15.97512239 188.67533875 15.9768219 C182.51035222 15.977685 176.3455397 15.9600082 170.18059373 15.93910003 C163.74236822 15.92038572 157.30413902 15.91858693 150.8658905 15.9150238 C140.05574156 15.90674956 129.24566419 15.88799257 118.43554688 15.86123657 C107.30045899 15.83370488 96.16538848 15.81246696 85.03027344 15.79971313 C84.34405263 15.79892496 83.65783181 15.79813679 82.95081643 15.79732474 C79.50829205 15.79340966 76.06576756 15.78961853 72.62324297 15.78588903 C44.05827431 15.75478242 15.49337305 15.70171447 -13.0715332 15.63491821 C-14.65051374 12.47695715 -14.89081491 9.02821186 -14.0715332 5.63491821 C-9.8680972 0.0841726 -6.49181892 -0.08482593 0 0 Z " fill="#D9D8D8" transform="translate(87.071533203125,34.365081787109375)"/>
<path d="M0 0 C17.82 0 35.64 0 54 0 C52.79333543 7.23998745 50.48518541 12.06871013 44.8125 16.83984375 C37.5183676 21.87920211 30.88186979 24.05798743 22 23 C12.84986584 20.51062526 7.04070666 16.13535322 1.98046875 8.16015625 C1 6 1 6 0 0 Z " fill="#D6D7D8" transform="translate(161,241)"/>
<path d="M0 0 C0.33 0 0.66 0 1 0 C1 61.05 1 122.1 1 185 C-27.05 185 -55.1 185 -84 185 C-84.66 187.97 -85.32 190.94 -86 194 C-89.66619105 201.2273002 -96.64466282 206.78390115 -104 210 C-106.75 210.125 -106.75 210.125 -109 210 C-109 209.01 -109 208.02 -109 207 C-108.02160156 206.65388672 -108.02160156 206.65388672 -107.0234375 206.30078125 C-98.37454109 203.0733907 -93.36891567 199.37820176 -88.98046875 191.18359375 C-87.81527309 188.76013615 -87.81527309 188.76013615 -87 185 C-104.82 185 -122.64 185 -141 185 C-141 184.67 -141 184.34 -141 184 C-122.85 184 -104.7 184 -86 184 C-85.67 183.34 -85.34 182.68 -85 182 C-84.34 182 -83.68 182 -83 182 C-83 182.66 -83 183.32 -83 184 C-55.61 184 -28.22 184 0 184 C0 123.28 0 62.56 0 0 Z " fill="#308BD0" transform="translate(302,56)"/>
<path d="M0 0 C18.15 0 36.3 0 55 0 C56.040901 7.28630699 56.09016705 9.39732325 52 15 C47.11529914 20.16224068 41.52900133 25.70463035 34.125 26.1875 C33.073125 26.0946875 33.073125 26.0946875 32 26 C32 25.01 32 24.02 32 23 C32.65226562 22.76925781 33.30453125 22.53851563 33.9765625 22.30078125 C42.62545891 19.0733907 47.63108433 15.37820176 52.01953125 7.18359375 C53.18472691 4.76013615 53.18472691 4.76013615 54 1 C36.18 1 18.36 1 0 1 C0 0.67 0 0.34 0 0 Z " fill="#4896D1" transform="translate(161,240)"/>
</svg>
